<svg xmlns="http://www.w3.org/2000/svg" width="24.544" height="24.543" viewBox="0 0 24.544 24.543">
  <g id="Gruppe_16045" data-name="Gruppe 16045" transform="translate(0.75 0.749)">
    <path id="Pfad_7461" data-name="Pfad 7461" d="M11.522,0h0A11.522,11.522,0,0,1,23.044,11.521h0A11.522,11.522,0,0,1,11.522,23.043h0A11.522,11.522,0,0,1,0,11.522H0A11.522,11.522,0,0,1,11.522,0Z" transform="translate(0 0.001)" fill="none" stroke="currentColor" stroke-width="1.5"/>
    <path id="Pfad_7460" data-name="Pfad 7460" d="M386.135,149.961h2.8v-7.024H390.9l.209-2.351H388.94v-1.339c0-.555.111-.774.648-.774h1.518v-2.44h-1.942c-2.087,0-3.028.919-3.028,2.678v1.875h-1.459v2.381h1.459Z" transform="translate(-376.369 -131.475)" fill="currentColor"/>
  </g>
</svg>
