<svg xmlns="http://www.w3.org/2000/svg" width="24.544" height="24.543" viewBox="0 0 24.544 24.543">
  <g id="Gruppe_16042" data-name="Gruppe 16042" transform="translate(0.75 0.749)">
    <path id="Pfad_7453" data-name="Pfad 7453" d="M438.212,151.548h0a11.521,11.521,0,0,1-11.522-11.521h0a11.522,11.522,0,0,1,11.522-11.522h0a11.522,11.522,0,0,1,11.522,11.522h0A11.522,11.522,0,0,1,438.212,151.548Z" transform="translate(-426.69 -128.504)" fill="none" stroke="currentColor" stroke-miterlimit="10" stroke-width="1.5"/>
    <g id="Gruppe_16041" data-name="Gruppe 16041" transform="translate(5.204 5.205)">
      <path id="Pfad_7454" data-name="Pfad 7454" d="M441.6,138.239c1.687,0,1.887.007,2.553.037a3.5,3.5,0,0,1,1.173.218,2.088,2.088,0,0,1,1.2,1.2,3.5,3.5,0,0,1,.218,1.173c.03.667.037.866.037,2.553s-.007,1.886-.037,2.552a3.5,3.5,0,0,1-.218,1.173,2.088,2.088,0,0,1-1.2,1.2,3.488,3.488,0,0,1-1.173.217c-.667.03-.866.037-2.553.037s-1.887-.007-2.553-.037a3.493,3.493,0,0,1-1.173-.217,2.092,2.092,0,0,1-1.2-1.2,3.489,3.489,0,0,1-.217-1.173c-.03-.666-.037-.866-.037-2.552s.007-1.887.037-2.553a3.488,3.488,0,0,1,.217-1.173,2.092,2.092,0,0,1,1.2-1.2,3.5,3.5,0,0,1,1.173-.218c.666-.03.866-.037,2.553-.037m0-1.138c-1.716,0-1.931.008-2.6.038a4.641,4.641,0,0,0-1.534.294,3.231,3.231,0,0,0-1.847,1.848,4.626,4.626,0,0,0-.294,1.534c-.031.674-.038.889-.038,2.6s.007,1.931.038,2.6a4.626,4.626,0,0,0,.294,1.534,3.231,3.231,0,0,0,1.847,1.848A4.657,4.657,0,0,0,439,149.7c.674.03.889.038,2.6.038s1.931-.007,2.6-.038a4.658,4.658,0,0,0,1.534-.294,3.234,3.234,0,0,0,1.848-1.848,4.642,4.642,0,0,0,.294-1.534c.031-.674.038-.889.038-2.6s-.007-1.931-.038-2.6a4.642,4.642,0,0,0-.294-1.534,3.234,3.234,0,0,0-1.848-1.848,4.642,4.642,0,0,0-1.534-.294c-.674-.03-.889-.038-2.6-.038" transform="translate(-435.286 -137.101)" fill="currentColor"/>
      <path id="Pfad_7455" data-name="Pfad 7455" d="M443.606,142.178a3.244,3.244,0,1,0,3.244,3.244,3.244,3.244,0,0,0-3.244-3.244m0,5.35a2.106,2.106,0,1,1,2.106-2.106,2.106,2.106,0,0,1-2.106,2.106" transform="translate(-437.289 -139.104)" fill="currentColor"/>
      <path id="Pfad_7456" data-name="Pfad 7456" d="M451.554,141.472a.758.758,0,1,1-.758-.758.758.758,0,0,1,.758.758" transform="translate(-441.106 -138.527)" fill="currentColor"/>
    </g>
  </g>
</svg>
