<svg xmlns="http://www.w3.org/2000/svg" width="24.544" height="24.543" viewBox="0 0 24.544 24.543">
  <g id="Gruppe_16046" data-name="Gruppe 16046" transform="translate(0.75 0.75)">
    <path id="Pfad_7462" data-name="Pfad 7462" d="M438.212,205.473h0a11.521,11.521,0,0,1-11.522-11.521h0a11.522,11.522,0,0,1,11.522-11.522h0a11.522,11.522,0,0,1,11.522,11.522h0A11.522,11.522,0,0,1,438.212,205.473Z" transform="translate(-426.69 -182.429)" fill="none" stroke="currentColor" stroke-miterlimit="10" stroke-width="1.5"/>
    <path id="Pfad_7463" data-name="Pfad 7463" d="M438.581,198.072a.271.271,0,0,0,.394-.2c.036-.138.122-.486.16-.631a.38.38,0,0,0-.113-.438,2.268,2.268,0,0,1-.518-1.541,3.722,3.722,0,0,1,3.87-3.765,2.942,2.942,0,0,1,3.27,3.013c0,2.266-1,4.179-2.492,4.179a1.217,1.217,0,0,1-1.241-1.514,16.818,16.818,0,0,0,.694-2.79,1.052,1.052,0,0,0-1.06-1.18c-.841,0-1.516.87-1.516,2.035a3.024,3.024,0,0,0,.251,1.244s-.86,3.645-1.011,4.283a8.818,8.818,0,0,0-.024,2.987.105.105,0,0,0,.187.045,8.393,8.393,0,0,0,1.419-2.572c.1-.35.553-2.16.553-2.16a2.253,2.253,0,0,0,1.92.979c2.527,0,4.241-2.3,4.241-5.386a4.7,4.7,0,0,0-4.976-4.5c-3.734,0-5.617,2.677-5.617,4.91A3.027,3.027,0,0,0,438.581,198.072Z" transform="translate(-430.747 -185.479)" fill="currentColor"/>
  </g>
</svg>
